<svg width="21" height="22" viewBox="0 0 21 22" fill="none" xmlns="http://www.w3.org/2000/svg">
<path d="M21.001 11.233C21.001 10.37 20.929 9.74001 20.774 9.08701H10.715V12.983H16.62C16.501 13.952 15.858 15.41 14.429 16.39L14.409 16.52L17.59 18.935L17.81 18.957C19.834 17.125 21.001 14.43 21.001 11.233Z" fill="#4285F4"/>
<path d="M10.714 21.5C13.607 21.5 16.035 20.567 17.809 18.957L14.428 16.39C13.523 17.008 12.309 17.44 10.714 17.44C7.88099 17.44 5.47602 15.608 4.61902 13.077L4.49298 13.087L1.18597 15.595L1.14301 15.713C2.90401 19.143 6.52299 21.5 10.714 21.5Z" fill="#34A853"/>
<path d="M4.62097 13.077C4.39497 12.423 4.26398 11.723 4.26398 11C4.26398 10.277 4.39501 9.577 4.60901 8.923L4.60303 8.784L1.25403 6.23599L1.14502 6.28699C0.41902 7.70999 0.00201416 9.308 0.00201416 11C0.00201416 12.692 0.41902 14.29 1.14502 15.713L4.62097 13.077Z" fill="#FBBC05"/>
<path d="M10.714 4.56C12.726 4.56 14.083 5.41199 14.857 6.12299L17.881 3.23001C16.024 1.53801 13.607 0.5 10.714 0.5C6.52399 0.5 2.90401 2.85699 1.14301 6.28699L4.60699 8.923C5.47599 6.392 7.88099 4.56 10.714 4.56Z" fill="#EB4335"/>
</svg>
