<svg width="68" height="68" viewBox="0 0 68 68" fill="none" xmlns="http://www.w3.org/2000/svg">
<path d="M27.9378 10.5C30.6321 5.83333 37.3679 5.83333 40.0622 10.5L57.3827 40.5C60.077 45.1667 56.7091 51 51.3205 51H16.6795C11.2909 51 7.92301 45.1667 10.6173 40.5L27.9378 10.5Z" fill="white" stroke="#F3966B" stroke-width="3" stroke-linejoin="round"/>
<circle cx="34" cy="43.122" r="2.4878" fill="#F3966B"/>
<path d="M30.3036 23.1242C30.1355 20.9389 31.8633 19.0731 34.055 19.0731C36.257 19.0731 37.9884 20.9559 37.8043 23.1502L36.6952 36.3669C36.578 37.7635 35.4102 38.8373 34.0087 38.8373C32.6 38.8373 31.4288 37.7528 31.3208 36.3482L30.3036 23.1242Z" fill="#F3966B"/>
</svg>
